<?xml version="1.0"?>
<svg width="128" height="128" xmlns="http://www.w3.org/2000/svg" xmlns:svg="http://www.w3.org/2000/svg">
 <!-- Created with SVG-edit - https://github.com/SVG-Edit/svgedit-->
 <defs>
  <linearGradient id="svg_21" spreadMethod="pad" x1="0" x2="1" y1="0" y2="1">
   <stop offset="0" stop-color="#c90808" stop-opacity="0.996094"/>
   <stop offset="1" stop-color="#750009" stop-opacity="0.988281"/>
  </linearGradient>
 </defs>
 <title>redmixctl</title>
 <g class="layer">
  <title>Layer 1</title>
  <ellipse cx="64" cy="64" fill="#c9c9c9" id="svg_2" rx="60" ry="60" stroke="#000000" stroke-width="2" transform="matrix(1, 0, 0, 1, 0, 0)"/>
  <ellipse cx="64" cy="64" fill="url(#svg_21)" id="svg_1" rx="42" ry="42" stroke="#000000" stroke-width="4"/>
  <line fill="none" id="svg_4" stroke="#000000" stroke-width="5" transform="matrix(1, 0, 0, 1, 0, 0)" x1="64" x2="64" y1="26" y2="45"/>
  <line fill="none" id="svg_5" stroke="#000000" stroke-width="2" transform="matrix(1, 0, 0, 1, 0, 0)" x1="64" x2="64" y1="4" y2="11"/>
  <line fill="none" id="svg_6" stroke="#000000" stroke-width="2" transform="matrix(1, 0, 0, 1, 0, 0)" x1="124" x2="117" y1="64" y2="64"/>
  <line fill="none" id="svg_7" stroke="#000000" stroke-width="2" transform="matrix(1, 0, 0, 1, 0, 0)" x1="4" x2="11" y1="64" y2="64"/>
  <line fill="none" id="svg_8" stroke="#000000" stroke-width="2" transform="matrix(1, 0, 0, 1, 0, 0)" x1="34" x2="37.5" y1="12" y2="18.1"/>
  <line fill="none" id="svg_10" stroke="#000000" stroke-width="2" transform="matrix(1, 0, 0, 1, 0, 0)" x1="94" x2="90.5" y1="116" y2="109.5"/>
  <line fill="none" id="svg_11" stroke="#000000" stroke-width="2" transform="matrix(1, 0, 0, 1, 0, 0)" x1="34" x2="37.5" y1="116" y2="109.9"/>
  <line fill="none" id="svg_23" stroke="#000000" stroke-width="2" transform="matrix(1, 0, 0, 1, 0, 0)" x1="116" x2="109.9" y1="94" y2="90.5"/>
  <line fill="none" id="svg_24" stroke="#000000" stroke-width="2" transform="matrix(1, 0, 0, 1, 0, 0)" x1="12" x2="18.1" y1="34" y2="37.5"/>
  <line fill="none" id="svg_26" stroke="#000000" stroke-width="2" transform="matrix(1, 0, 0, 1, 0, 0)" x1="94" x2="90.5" y1="12" y2="18.1"/>
  <line fill="none" id="svg_27" stroke="#000000" stroke-width="2" transform="matrix(1, 0, 0, 1, 0, 0)" x1="116" x2="109.9" y1="34" y2="37.5"/>
  <line fill="none" id="svg_28" stroke="#000000" stroke-width="2" transform="matrix(1, 0, 0, 1, 0, 0)" x1="12" x2="18.1" y1="94" y2="90.5"/>
 </g>
</svg>